PathFileType	4	(X/Y/Z)	/home/abdul/Desktop/myosuite/custom_workspace/IK/output/S4_12_2.trc
DataRate	CameraRate	NumFrames	NumMarkers	Units	OrigDataRate	OrigDataStartFrame	OrigNumFrames
200.0	200.0	28	3	mm	200.0	132	1054
Frame#	Time	V_Shoulder			V_Elbow			V_Wrist		
		X1	Y1	Z1	X2	Y2	Z2	X3	Y3	Z3

132	0.655	-95.81520414973902	583.4977901510556	268.9857103619836	-189.53934854644893	453.92245789458616	8.937818094113405	-202.37210530979303	237.70682895510782	56.440198897607395
133	0.66	-95.79448445599887	583.3253030770087	268.97985669637814	-189.23742131914338	454.1744390152937	8.632306475891513	-200.95491964523268	238.24543704574137	57.426918402442375
134	0.665	-95.77117905770137	583.1514357249745	268.976210030109	-188.92870279198723	454.40511050808976	8.342467048266673	-199.50639385852435	238.7649145080494	58.40788462010634
135	0.67	-95.74520910108357	582.9761023357291	268.97475101112383	-188.61301481665032	454.6136903772565	8.068557454022367	-198.02748916299834	239.26406647527915	59.38139550358815
136	0.675	-95.71649686851855	582.7992139972094	268.97545673964936	-188.29018127175118	454.79944238073926	7.810795853644839	-196.51921932399986	239.74173401726313	60.3457471274852
137	0.68	-95.68496588643501	582.6206790936984	268.9783009181629	-187.96002891999456	454.9616784879425	7.569360695786807	-194.98264850113742	240.19679774657493	61.29923871231017
138	0.685	-95.65054103112554	582.4404037723679	268.9832540117964	-187.62238828016544	455.0997611802328	7.344390633449981	-193.41888896446363	240.62818131117518	62.24017767588142
139	0.69	-95.61314863229332	582.2582924250456	268.9902834184401	-187.2770945100035	455.21310558461494	7.135984584624782	-191.82909869248203	241.03485475927562	63.166884690253795
140	0.695	-95.5727165742003	582.0742481829872	268.9993536477828	-186.92398829587793	455.3011814317724	6.944201935470615	-190.21447886021167	241.41583776261558	64.0776987225113
141	0.7	-95.52917439428923	581.888173422368	269.0104265084845	-186.56291674510373	455.3635148304266	6.769062883484923	-188.5762712258383	241.77020268488013	64.97098203773558
142	0.705	-95.48245337916545	581.6999702781546	269.0234613026489	-186.19373427668364	455.3996898507684	6.610548917496819	-186.91575542475078	242.09707748258836	65.84512514258522
143	0.71	-95.43248665783433	581.5095411639619	269.03841502673487	-185.8163035062257	455.4093499105568	6.468603430734392	-185.23424617999024	242.39564842644185	66.69855164816806
144	0.715	-95.37920929210277	581.3167892954754	269.05524257802364	-185.4304961207775	455.3921989583389	6.3431324626562215	-183.5330904383377	242.66516263184786	67.52972303126194
145	0.72	-95.32255836406334	581.1216192149933	269.07389696573614	-185.03619373933083	455.3480024491411	6.234005564709468	-181.8136644414265	242.90493038811053	68.33714327343297
146	0.725	-95.26247306059123	580.9239373146337	269.0943295258835	-184.63328875478888	455.276588108889	6.141056784681416	-180.07737074139266	243.11432727661997	69.1193633582125
147	0.73	-95.19889475479494	580.7236523557543	269.1164901389178	-184.2216851532479	455.1778464847431	6.064085763849948	-178.32563517066455	243.29279606925468	69.87498560721872
148	0.735	-95.13176708437123	580.5206759821535	269.1403274492477	-183.8012993065297	455.0517312794783	6.002858940713102	-176.55990377555247	243.43984839914646	70.60266783694061
149	0.74	-95.0610360268261	580.3149232246373	269.16578908567726	-183.3720607340063	454.89825946897884	5.957110854689461	-174.78163972331362	243.55506619693438	71.30112731883483
150	0.745	-94.98664997153173	580.1063129945898	269.19282188182916	-182.9339128298876	454.71751120287104	5.926545542831226	-172.99232019235782	243.6381028866482	71.96914452641283
151	0.75	-94.9085597886001	579.894768564225	269.22137209561913	-182.48681355228968	454.50962948926184	5.910838022280725	-171.1934332552067	243.68868433641296	72.60556665410873
152	0.755	-94.82671889456155	579.6802180312675	269.2513856268578	-182.03073607057254	454.27481966549044	5.909635850930003	-169.38647476373646	243.7066095602441	73.2093108939101
153	0.76	-94.74108331484545	579.4625947658791	269.28280823207007	-181.5656693676221	454.013348657727	5.922560758511989	-167.57294524611643	243.6917511683039	73.77936745699574
154	0.765	-94.65161174306832	579.2418378377357	269.3155857356389	-181.0916187939579	453.7255440331646	5.949210340161073	-165.75434682470512	243.64405556411174	74.31480232894774
155	0.77	-94.55826559714103	579.0178924212536	269.349664236406	-180.6086065707704	453.41179284944053	5.989159804330697	-163.93218016398205	243.56354288833143	74.81475974848018
156	0.775	-94.461009072215	578.7907101770652	269.3849903088812	-180.1166722392287	453.07254030678695	6.041963766845672	-162.1079414573785	243.4503067099002	75.27846440104705
157	0.78	-94.35980919049207	578.5602496079649	269.42151119824763	-179.6158730536517	452.70828820924794	6.107158082797085	-160.2831194616253	243.30451346640115	75.70522332014308
158	0.785	-94.25463584792988	578.3264763876604	269.45917500837896	-179.10628431639896	452.31959324210044	6.184261707957429	-158.45919258695932	243.12640165671593	76.09442749059073
159	0.79	-94.14546185787874	578.0893636608004	269.4979308821213	-178.58799965261062	451.9070650733818	6.272778581402454	-156.63762605122733	242.9162807901161	76.44555314959831
